<svg width="48.000000" height="48.000000" viewBox="0 0 48 48" fill="none" xmlns="http://www.w3.org/2000/svg" xmlns:xlink="http://www.w3.org/1999/xlink">
	<desc>
			Created with Pixso.
	</desc>
	<defs/>
	<rect id="Прямоугольник 3" y="0.000001" rx="15.000000" width="48.000000" height="48.000000" fill="#1D2633" fill-opacity="1.000000"/>
	<path id="Форма 4" d="M24.33 7L5.33 15.33L24.33 24L24.33 7Z" fill="#45AEF5" fill-opacity="1.000000" fill-rule="evenodd"/>
	<path id="Форма 4" d="M5.33 15.33L24.33 24L24.33 7L5.33 15.33Z" stroke="#FFFFFF" stroke-opacity="0" stroke-width="1.000000"/>
	<path id="Форма 3" d="M5.33 15.33L24.33 45L24.33 24L5.33 15.33Z" fill="#3888BF" fill-opacity="1.000000" fill-rule="evenodd"/>
	<path id="Форма 3" d="M24.33 45L24.33 24L5.33 15.33L24.33 45Z" stroke="#FFFFFF" stroke-opacity="0" stroke-width="1.000000"/>
	<path id="Форма 1" d="M24 7L43 15.33L24 24L24 7Z" fill="#45AEF5" fill-opacity="1.000000" fill-rule="evenodd"/>
	<path id="Форма 1" d="M43 15.33L24 24L24 7L43 15.33Z" stroke="#FFFFFF" stroke-opacity="0" stroke-width="1.000000"/>
	<path id="Форма 2" d="M43 15.33L24 45L24 24L43 15.33Z" fill="#2B628A" fill-opacity="1.000000" fill-rule="evenodd"/>
	<path id="Форма 2" d="M24 45L24 24L43 15.33L24 45Z" stroke="#FFFFFF" stroke-opacity="0" stroke-width="1.000000"/>
</svg>
